<?xml version="1.0" standalone="no"?>
<!DOCTYPE svg PUBLIC "-//W3C//DTD SVG 20010904//EN"
 "http://www.w3.org/TR/2001/REC-SVG-20010904/DTD/svg10.dtd">
<svg version="1.0" xmlns="http://www.w3.org/2000/svg"
 width="1200.000000pt" height="1200.000000pt" viewBox="0 0 1200.000000 1200.000000"
 preserveAspectRatio="xMidYMid meet">
<metadata>
Created by potrace 1.11, written by Peter Selinger 2001-2013
</metadata>
<g transform="translate(0.000000,1200.000000) scale(0.100000,-0.100000)"
fill="#000000" stroke="none">
<path d="M6019 11296 c-2 -2 -23 -6 -47 -10 -325 -44 -656 -324 -825 -697 -26
-56 -84 -219 -92 -255 -2 -10 -10 -51 -19 -91 -24 -111 -26 -137 -31 -313 -3
-146 7 -291 29 -385 2 -11 9 -41 15 -67 28 -123 102 -310 159 -401 13 -22 21
-41 19 -44 -3 -2 -40 -17 -83 -32 -462 -165 -892 -436 -1248 -785 l-70 -69
-96 51 c-184 98 -430 192 -619 238 -182 43 -268 55 -421 59 -228 6 -348 -17
-526 -100 -147 -68 -224 -124 -364 -265 -150 -150 -277 -335 -430 -625 -80
-151 -131 -237 -157 -262 l-23 -24 28 -10 c38 -15 248 -67 297 -74 23 -3 50
-7 62 -9 69 -14 176 -21 313 -21 199 0 243 5 441 50 102 23 360 22 441 -1 9
-3 25 -6 35 -8 88 -17 208 -69 256 -111 22 -20 26 -28 18 -44 -34 -63 -141
-427 -166 -566 -13 -75 -36 -235 -41 -285 -2 -30 -7 -77 -9 -105 -6 -69 -7
-392 -1 -435 3 -19 8 -69 11 -110 7 -87 11 -113 30 -235 20 -121 23 -134 46
-250 12 -55 23 -109 25 -120 11 -59 18 -89 41 -185 14 -58 27 -115 29 -126 9
-48 106 -378 148 -504 100 -302 184 -506 314 -770 105 -209 96 -190 81 -190
-22 0 -270 -130 -367 -193 -149 -96 -265 -197 -410 -356 -54 -59 -165 -230
-211 -324 -80 -167 -148 -417 -136 -503 21 -144 75 -358 121 -477 151 -392
359 -595 654 -636 84 -11 133 -6 197 24 88 40 143 115 192 260 18 55 39 129
46 165 20 101 86 283 117 324 10 13 13 30 9 50 -8 35 -6 133 2 217 19 178 94
365 208 519 49 66 121 144 141 152 4 2 51 -40 105 -93 254 -247 522 -430 820
-558 102 -44 172 -68 357 -125 l38 -12 53 -149 c179 -512 323 -733 447 -686
92 35 211 232 342 566 37 94 71 180 76 193 8 17 18 22 47 22 21 0 56 4 78 9
22 5 58 12 80 15 51 6 219 48 310 76 392 121 785 364 1109 683 l69 68 39 -38
c63 -61 156 -189 200 -277 84 -167 110 -274 113 -471 3 -138 5 -154 28 -195
33 -59 57 -132 107 -320 75 -285 142 -383 284 -415 133 -30 305 16 449 119
127 90 234 241 331 467 42 98 105 323 121 429 3 25 10 62 15 83 7 34 6 56 -5
122 -36 220 -164 498 -314 685 -48 60 -192 205 -261 262 -101 83 -253 179
-403 253 -82 40 -145 75 -140 78 8 5 152 289 191 377 92 209 184 458 246 665
20 66 40 134 46 150 44 142 136 563 166 759 3 21 7 46 9 55 3 15 21 138 30
206 19 142 26 484 13 665 -8 98 -25 243 -32 270 -3 8 -7 37 -11 64 -3 27 -8
52 -10 55 -1 3 -6 24 -9 46 -12 73 -77 308 -121 438 l-44 127 42 31 c129 94
308 142 527 140 117 0 171 -5 228 -21 129 -34 233 -45 427 -44 175 0 257 7
373 30 42 8 88 17 102 20 34 7 169 44 197 55 22 8 22 9 -12 46 -19 21 -35 41
-35 46 0 4 -11 24 -23 45 -13 20 -52 91 -87 157 -89 169 -200 351 -272 448
-52 69 -241 267 -289 302 -132 99 -319 191 -428 212 -14 2 -27 6 -31 8 -4 2
-29 7 -56 10 -27 4 -60 8 -74 11 -33 5 -238 6 -270 0 -14 -3 -59 -10 -100 -16
-146 -21 -509 -123 -605 -169 -11 -6 -64 -30 -118 -55 -54 -25 -125 -61 -158
-82 l-60 -36 -92 89 c-51 49 -123 116 -162 148 -38 33 -72 62 -75 65 -11 11
-129 100 -195 147 -199 141 -514 308 -745 394 -63 23 -117 44 -119 46 -3 2 5
20 16 41 47 84 60 110 86 172 52 126 81 234 114 420 11 67 9 373 -3 467 -64
474 -310 864 -676 1067 -47 26 -203 81 -258 91 -42 7 -265 17 -271 11z m731
-3070 c116 -33 410 -169 492 -227 14 -10 29 -19 32 -19 9 0 178 -120 251 -178
429 -345 759 -843 901 -1361 19 -69 37 -142 40 -161 3 -19 7 -41 10 -48 2 -8
7 -37 10 -65 4 -29 8 -55 10 -58 17 -30 26 -457 12 -619 -4 -47 -21 -164 -37
-260 -105 -623 -271 -1144 -510 -1605 -223 -429 -485 -748 -806 -981 -70 -51
-115 -79 -115 -70 0 2 16 28 35 58 64 96 184 350 225 475 42 129 74 273 87
388 10 86 10 370 0 445 -58 455 -252 871 -605 1300 -125 152 -318 338 -468
452 -165 125 -338 334 -433 524 -53 106 -105 261 -117 349 -2 17 -6 41 -9 55
-6 30 -7 250 -1 302 36 301 189 637 441 973 87 115 204 255 287 341 l49 51 87
-24 c48 -13 107 -30 132 -37z m-1432 -133 c-223 -355 -366 -758 -403 -1135 -7
-73 -7 -300 0 -363 2 -22 7 -65 10 -95 32 -293 186 -680 378 -947 116 -162
288 -350 422 -461 44 -37 85 -71 92 -77 6 -5 26 -21 45 -35 56 -41 239 -230
311 -320 209 -263 327 -504 372 -765 14 -78 14 -310 1 -365 -3 -14 -8 -37 -11
-51 -31 -168 -172 -433 -330 -619 -74 -87 -310 -313 -405 -386 -154 -119 -132
-113 -246 -75 -114 38 -269 111 -375 178 -176 112 -382 298 -517 468 -35 44
-71 89 -80 100 -41 50 -193 293 -251 399 -264 487 -483 1163 -600 1851 -10 58
-12 82 -27 225 -7 74 -7 288 0 372 8 91 17 172 21 188 3 8 7 33 11 55 5 35 34
158 64 277 5 20 30 89 55 154 106 273 230 488 419 724 66 83 296 316 364 371
24 19 56 44 70 57 54 47 310 210 402 257 112 57 240 114 257 115 6 0 -16 -43
-49 -97z"/>
</g>
</svg>
