<svg height='100px' width='100px'  fill="#000000" xmlns="http://www.w3.org/2000/svg" xmlns:xlink="http://www.w3.org/1999/xlink" version="1.1" x="0px" y="0px" viewBox="0 0 48 48" enable-background="new 0 0 48 48" xml:space="preserve"><g><path d="M45,0H3C1.3,0,0,1.3,0,3v42c0,1.7,1.3,3,3,3h42c1.7,0,3-1.3,3-3V3C48,1.3,46.7,0,45,0z M34.9,3.2c1.1,0,2,0.9,2,2   c0,1.1-0.9,2-2,2c-1.1,0-2-0.9-2-2C32.9,4.1,33.8,3.2,34.9,3.2z M28.2,3.2c1.1,0,2,0.9,2,2c0,1.1-0.9,2-2,2c-1.1,0-2-0.9-2-2   C26.2,4.1,27.1,3.2,28.2,3.2z M6.3,3.2c1.1,0,2,0.9,2,2c0,1.1-0.9,2-2,2c-1.1,0-2-0.9-2-2C4.3,4.1,5.2,3.2,6.3,3.2z M43.7,43.3H4.3   V11.2h39.3V43.3z M41.7,7.2c-1.1,0-2-0.9-2-2c0-1.1,0.9-2,2-2c1.1,0,2,0.9,2,2C43.7,6.3,42.8,7.2,41.7,7.2z"></path><path d="M7.6,27.1c0.1,0,0.1,0,0.2,0l1.8-0.6c0,0.5,0.1,1,0.2,1.5c-0.3,0-0.7,0.2-1,0.3c-0.7,0.4-1.2,1-1.4,1.7   c-0.1,0.3,0.1,0.6,0.4,0.7c0.1,0,0.1,0,0.2,0c0.2,0,0.5-0.2,0.6-0.4c0.1-0.5,0.4-0.8,0.9-1.1c0.3-0.1,0.6-0.2,0.8-0.2   c0.8,1.6,2.1,2.7,3.7,2.7s2.9-1.1,3.7-2.7c0.3,0,0.6,0.1,0.8,0.2c0.4,0.2,0.7,0.6,0.9,1.1c0.1,0.3,0.3,0.4,0.6,0.4   c0.1,0,0.1,0,0.2,0c0.3-0.1,0.5-0.4,0.4-0.7C20.1,29,19.1,28.2,18,28c0.1-0.5,0.2-1,0.2-1.5l1.8,0.6c0.1,0,0.1,0,0.2,0   c0.2,0,0.5-0.2,0.5-0.4c0.1-0.3-0.1-0.6-0.4-0.7l-2.1-0.7c0-0.4-0.1-0.8-0.2-1.2c0.3,0,0.7-0.1,1-0.3c0.7-0.4,1.2-1,1.4-1.7   c0.1-0.3-0.1-0.6-0.4-0.7c-0.1,0-0.1,0-0.2,0c-0.2,0-0.5,0.2-0.6,0.4c-0.1,0.5-0.4,0.8-0.9,1.1c-0.3,0.1-0.6,0.2-0.8,0.2   c-0.3-0.6-0.6-1.1-1.1-1.6c0.5-0.6,0.8-1.4,0.8-2.2c0-1-0.4-1.9-1.1-2.5l0.9-1.1c0.2-0.2,0.2-0.6-0.1-0.8c-0.2-0.2-0.6-0.2-0.8,0.1   L15.4,16c-0.4-0.2-0.9-0.3-1.4-0.3c-0.5,0-1,0.1-1.4,0.3l-0.9-1.1c-0.2-0.2-0.6-0.3-0.8-0.1c-0.2,0.2-0.3,0.6-0.1,0.8l0.9,1.1   c-0.7,0.6-1.1,1.5-1.1,2.5c0,0.8,0.3,1.6,0.8,2.2c-0.4,0.4-0.8,1-1.1,1.6c-0.3,0-0.6-0.1-0.8-0.2c-0.4-0.2-0.7-0.6-0.9-1.1   c-0.1-0.3-0.3-0.4-0.6-0.4c-0.1,0-0.1,0-0.2,0c-0.3,0.1-0.5,0.4-0.4,0.7c0.2,0.7,0.7,1.4,1.4,1.7c0.3,0.2,0.6,0.3,1,0.3   c-0.1,0.4-0.2,0.8-0.2,1.2L7.4,26c-0.3,0.1-0.5,0.4-0.4,0.7C7.1,26.9,7.4,27.1,7.6,27.1z"></path><path d="M25.1,16.7H40c0.6,0,1-0.4,1-1c0-0.6-0.4-1-1-1H25.1c-0.6,0-1,0.4-1,1C24.1,16.2,24.5,16.7,25.1,16.7z"></path><path d="M25.1,24.4H40c0.6,0,1-0.4,1-1c0-0.6-0.4-1-1-1H25.1c-0.6,0-1,0.4-1,1C24.1,23.9,24.5,24.4,25.1,24.4z"></path><path d="M25.1,32.1H40c0.6,0,1-0.4,1-1c0-0.6-0.4-1-1-1H25.1c-0.6,0-1,0.4-1,1C24.1,31.6,24.5,32.1,25.1,32.1z"></path><path d="M40,37.8H8.1c-0.6,0-1,0.4-1,1c0,0.6,0.4,1,1,1H40c0.6,0,1-0.4,1-1C41,38.2,40.5,37.8,40,37.8z"></path></g></svg>