<svg height='100px' width='100px'  fill="#000000" xmlns="http://www.w3.org/2000/svg" xmlns:xlink="http://www.w3.org/1999/xlink" version="1.1" x="0px" y="0px" viewBox="0 0 48 48" enable-background="new 0 0 48 48" xml:space="preserve"><path d="M46,38.4h-1.8V24.7c0-0.6-0.4-1-1-1h-5V5.8c0-0.6-0.4-1-1-1h-7.4V2c0-1.1-0.9-2-2-2h-7.6c-1.1,0-2,0.9-2,2v2.8h-7.4  c-0.6,0-1,0.4-1,1v17.9h-5c-0.6,0-1,0.4-1,1v13.7H2c-1.1,0-2,0.9-2,2V46c0,1.1,0.9,2,2,2h5.6c1.1,0,2-0.9,2-2v-5.6c0-1.1-0.9-2-2-2  H5.8V25.7h13.4v1.9c0,1.1,0.9,2,2,2H23v8.8h-1.8c-1.1,0-2,0.9-2,2V46c0,1.1,0.9,2,2,2h5.6c1.1,0,2-0.9,2-2v-5.6c0-1.1-0.9-2-2-2H25  v-8.8h1.8c1.1,0,2-0.9,2-2v-1.9h13.4v12.7h-1.8c-1.1,0-2,0.9-2,2V46c0,1.1,0.9,2,2,2H46c1.1,0,2-0.9,2-2v-5.6  C48,39.3,47.1,38.4,46,38.4z M26.8,20h-5.6c-1.1,0-2,0.9-2,2v1.7h-7.4V6.8h6.4v2.8c0,1.1,0.9,2,2,2h7.6c1.1,0,2-0.9,2-2V6.8h6.4  v16.9h-7.4V22C28.8,20.9,27.9,20,26.8,20z"></path></svg>