<svg height='100px' width='100px'  fill="#000000" xmlns="http://www.w3.org/2000/svg" xmlns:xlink="http://www.w3.org/1999/xlink" version="1.1" x="0px" y="0px" viewBox="0 0 48 48" enable-background="new 0 0 48 48" xml:space="preserve"><g><path d="M44.6,7.4c0-1.7-1.4-3.1-3.1-3.1h-35c-1.7,0-3.1,1.4-3.1,3.1v27.5h41.2V7.4z M12.1,27.6c0-6.5,5.3-11.9,11.9-11.9   c6.5,0,11.9,5.3,11.9,11.9c0,1.3-0.2,2.5-0.6,3.7h-8.2c-0.1-1.6-1.5-2.9-3.1-2.9c-0.1,0-0.2,0-0.3,0l-3.2-3.2c-0.4-0.4-1-0.4-1.4,0   c-0.4,0.4-0.4,1,0,1.4l2.6,2.6c-0.5,0.5-0.8,1.2-0.9,1.9h-8.2C12.3,30,12.1,28.8,12.1,27.6z M41,31.2h-3.6c0.3-1.2,0.5-2.4,0.5-3.7   c0-7.6-6.2-13.9-13.9-13.9c-7.6,0-13.9,6.2-13.9,13.9c0,1.3,0.2,2.5,0.5,3.7H7V7.9h34V31.2z"></path><path d="M46.4,36.9H29l-1,2.4h-8l-1-2.4H1.6c-1.2,0-2,1.4-1.3,2.4C2,42,5,43.7,8.3,43.7h31.3c2.1,0,4.1-0.7,5.7-1.9   c0.9-0.7,1.7-1.5,2.4-2.5C48.4,38.3,47.7,36.9,46.4,36.9z"></path><path d="M24,21c0.6,0,1-0.4,1-1v-1.7c0-0.6-0.4-1-1-1c-0.6,0-1,0.4-1,1V20C23,20.6,23.4,21,24,21z"></path><path d="M30.4,23.1l1.2-1.2c0.4-0.4,0.4-1,0-1.4c-0.4-0.4-1-0.4-1.4,0L29,21.7c-0.4,0.4-0.4,1,0,1.4C29.1,23.3,29.7,23.6,30.4,23.1   z"></path><path d="M19,21.7l-1.2-1.2c-0.4-0.4-1-0.4-1.4,0c-0.4,0.4-0.4,1,0,1.4l1.2,1.2c0.6,0.5,1.2,0.2,1.4,0C19.4,22.7,19.4,22.1,19,21.7z   "></path><path d="M16,27.1h-1.7c-0.6,0-1,0.4-1,1c0,0.6,0.4,1,1,1H16c0.6,0,1-0.4,1-1C17,27.5,16.5,27.1,16,27.1z"></path><path d="M31,28.1c0,0.6,0.4,1,1,1h1.7c0.6,0,1-0.4,1-1c0-0.6-0.4-1-1-1H32C31.5,27.1,31,27.5,31,28.1z"></path></g></svg>