<svg height='100px' width='100px'  fill="#000000" xmlns="http://www.w3.org/2000/svg" xmlns:xlink="http://www.w3.org/1999/xlink" version="1.1" x="0px" y="0px" viewBox="0 0 48 48" enable-background="new 0 0 48 48" xml:space="preserve"><path d="M45,0H3C1.3,0,0,1.3,0,3v42c0,1.7,1.3,3,3,3h42c1.7,0,3-1.3,3-3V3C48,1.3,46.7,0,45,0z M43.7,27  C39.4,20.7,32.2,16.5,24,16.5c-8.2,0-15.4,4.2-19.7,10.6V11.2h39.3V27z M42.8,3.2c1.1,0,2,0.9,2,2s-0.9,2-2,2c-1.1,0-2-0.9-2-2  S41.7,3.2,42.8,3.2z M36.3,3.2c1.1,0,2,0.9,2,2s-0.9,2-2,2c-1.1,0-2-0.9-2-2S35.2,3.2,36.3,3.2z M5.2,3.2H26c1.1,0,2,0.9,2,2  s-0.9,2-2,2H5.2c-1.1,0-2-0.9-2-2S4.1,3.2,5.2,3.2z M29.2,43.3c0-2.3-1.6-4.2-3.7-4.8L24.6,25c0-0.7-1-0.7-1.1,0l-0.9,13.4  C20.5,39,19,41,18.9,43.3H4.3v-3.1C4.4,29.3,13.2,20.5,24,20.5c10.8,0,19.6,8.8,19.7,19.7v3.1H29.2z"></path></svg>