<svg height='100px' width='100px'  fill="#000000" xmlns="http://www.w3.org/2000/svg" xmlns:xlink="http://www.w3.org/1999/xlink" version="1.1" x="0px" y="0px" viewBox="0 0 48 48" enable-background="new 0 0 48 48" xml:space="preserve"><g><path d="M45,0H3C1.3,0,0,1.3,0,3v42c0,1.7,1.3,3,3,3h42c1.7,0,3-1.3,3-3V3C48,1.3,46.7,0,45,0z M36.3,3.2c1.1,0,2,0.9,2,2   s-0.9,2-2,2c-1.1,0-2-0.9-2-2S35.2,3.2,36.3,3.2z M3.2,5.2c0-1.1,0.9-2,2-2H26c1.1,0,2,0.9,2,2s-0.9,2-2,2H5.2   C4.1,7.2,3.2,6.3,3.2,5.2z M43.7,43.3H4.3V11.2h39.3V43.3z M42.8,7.2c-1.1,0-2-0.9-2-2s0.9-2,2-2c1.1,0,2,0.9,2,2   S43.9,7.2,42.8,7.2z"></path><path d="M12.6,29.2l1.3,0.2c0.4,0.1,0.7,0.3,0.8,0.7c0.2,0.6,0.4,1.1,0.7,1.7c0.2,0.3,0.2,0.8-0.1,1.1l-0.7,1   c-0.3,0.4-0.2,0.9,0.1,1.3l1.4,1.4c0.3,0.3,0.9,0.4,1.3,0.1l1-0.7c0.3-0.2,0.7-0.2,1.1-0.1c0.5,0.3,1.1,0.5,1.7,0.7   c0.4,0.1,0.7,0.4,0.7,0.8l0.2,1.3c0.1,0.5,0.5,0.8,1,0.8h2c0.5,0,0.9-0.4,1-0.8l0.2-1.3c0.1-0.4,0.3-0.7,0.7-0.8   c0.6-0.2,1.1-0.4,1.7-0.7c0.3-0.2,0.8-0.2,1.1,0.1l1,0.7c0.4,0.3,0.9,0.2,1.3-0.1l1.4-1.4c0.3-0.3,0.4-0.9,0.1-1.3l-0.7-1   c-0.2-0.3-0.2-0.7-0.1-1.1c0.3-0.5,0.5-1.1,0.7-1.7c0.1-0.4,0.4-0.7,0.8-0.7l1.3-0.2c0.5-0.1,0.8-0.5,0.8-1v-2c0-0.5-0.4-0.9-0.8-1   L34.2,25c-0.4-0.1-0.7-0.3-0.8-0.7c-0.2-0.6-0.4-1.1-0.7-1.7c-0.2-0.3-0.2-0.8,0.1-1.1l0.7-1c0.3-0.4,0.2-0.9-0.1-1.3L32,17.9   c-0.3-0.3-0.9-0.4-1.3-0.1l-1,0.7c-0.3,0.2-0.7,0.2-1.1,0.1c-0.5-0.3-1.1-0.5-1.7-0.7c-0.4-0.1-0.7-0.4-0.7-0.8L26,15.8   c-0.1-0.5-0.5-0.8-1-0.8h-2c-0.5,0-0.9,0.4-1,0.8l-0.2,1.3c-0.1,0.4-0.3,0.7-0.7,0.8c-0.6,0.2-1.1,0.4-1.7,0.7   c-0.3,0.2-0.8,0.2-1.1-0.1l-1-0.7c-0.4-0.3-0.9-0.2-1.3,0.1l-1.4,1.4c-0.3,0.3-0.4,0.9-0.1,1.3l0.7,1c0.2,0.3,0.2,0.7,0.1,1.1   c-0.3,0.5-0.5,1.1-0.7,1.7c-0.1,0.4-0.4,0.7-0.8,0.7l-1.3,0.2c-0.5,0.1-0.8,0.5-0.8,1v2C11.8,28.7,12.1,29.1,12.6,29.2z M24,20.9   c3.5,0,6.3,2.8,6.3,6.3c0,3.5-2.8,6.3-6.3,6.3c-3.5,0-6.3-2.8-6.3-6.3C17.7,23.8,20.5,20.9,24,20.9z"></path></g></svg>