<svg height='100px' width='100px'  fill="#000000" xmlns="http://www.w3.org/2000/svg" xmlns:xlink="http://www.w3.org/1999/xlink" version="1.1" x="0px" y="0px" viewBox="0 0 48 48" enable-background="new 0 0 48 48" xml:space="preserve"><g><polygon points="16.7,29.8 9.6,26.5 9.6,26.3 16.7,23.1 16.7,20.8 7.2,25.2 7.2,27.7 16.7,32  "></polygon><polygon points="29.5,18.1 27.5,18.1 18.8,36.7 20.8,36.7  "></polygon><polygon points="41,25.2 31.5,20.8 31.5,23.1 38.6,26.3 38.6,26.5 31.5,29.8 31.5,32 41,27.7  "></polygon><path d="M45,0H3C1.3,0,0,1.3,0,3v42c0,1.7,1.3,3,3,3h42c1.7,0,3-1.3,3-3V3C48,1.3,46.7,0,45,0z M36.3,3.2c1.1,0,2,0.9,2,2   c0,1.1-0.9,2-2,2c-1.1,0-2-0.9-2-2C34.3,4.1,35.2,3.2,36.3,3.2z M3.2,5.2c0-1.1,0.9-2,2-2H26c1.1,0,2,0.9,2,2c0,1.1-0.9,2-2,2H5.2   C4.1,7.2,3.2,6.3,3.2,5.2z M43.7,43.3H4.3V11.2h39.3V43.3z M42.8,7.2c-1.1,0-2-0.9-2-2c0-1.1,0.9-2,2-2c1.1,0,2,0.9,2,2   C44.8,6.3,43.9,7.2,42.8,7.2z"></path></g></svg>