<svg height='100px' width='100px'  fill="#000000" xmlns="http://www.w3.org/2000/svg" xmlns:xlink="http://www.w3.org/1999/xlink" version="1.1" x="0px" y="0px" viewBox="0 0 48 48" enable-background="new 0 0 48 48" xml:space="preserve"><g><path d="M24,0C10.8,0,0,10.8,0,24s10.8,24,24,24s24-10.8,24-24S37.2,0,24,0z M24,44C13,44,4,35,4,24S13,4,24,4s20,9,20,20   S35,44,24,44z"></path><path d="M27.9,21c-0.2-0.4-0.5-0.7-0.9-0.9l-12.7-6.8c-0.6-0.3-1.3,0.4-1,1L20.1,27c0.2,0.4,0.5,0.7,0.9,0.9l12.7,6.8   c0.6,0.3,1.3-0.4,1-1L27.9,21z M25.6,25.6c-0.9,0.9-2.3,0.9-3.1,0c-0.9-0.9-0.9-2.3,0-3.1c0.9-0.9,2.3-0.9,3.1,0   C26.4,23.3,26.4,24.7,25.6,25.6z"></path><path d="M24,10.2c0.6,0,1-0.4,1-1V7.4c0-0.6-0.4-1-1-1c-0.6,0-1,0.4-1,1v1.8C23,9.8,23.4,10.2,24,10.2z"></path><path d="M24,37.8c-0.6,0-1,0.4-1,1v1.8c0,0.6,0.4,1,1,1c0.6,0,1-0.4,1-1v-1.8C25,38.2,24.6,37.8,24,37.8z"></path><path d="M40.6,23h-1.8c-0.6,0-1,0.4-1,1c0,0.6,0.4,1,1,1h1.8c0.6,0,1-0.4,1-1C41.6,23.4,41.2,23,40.6,23z"></path><path d="M9.2,23H7.4c-0.6,0-1,0.4-1,1c0,0.6,0.4,1,1,1h1.8c0.6,0,1-0.4,1-1C10.2,23.4,9.8,23,9.2,23z"></path></g></svg>