<svg height='100px' width='100px'  fill="#000000" xmlns="http://www.w3.org/2000/svg" xmlns:xlink="http://www.w3.org/1999/xlink" version="1.1" x="0px" y="0px" viewBox="0 0 48 48" enable-background="new 0 0 48 48" xml:space="preserve"><path d="M41.7,23.6c2.8-5.3,2.6-11.9-1-16.7c-1.6-2.2-4-4.2-7.4-5.4c0,0-11-4.3-19.1,2.1c-2.1,1.7-3.7,4-4.7,6.5  c-0.9,2.4-1.7,5.9-1,9.4l-3.8,5.2c-1,1.4-0.1,3.3,1.6,3.4c0.9,0.1,1.4,0.8,1.4,1.5c0,0.3-0.1,0.6-0.3,0.9c-0.2,0.2-0.3,0.5-0.3,0.8  c0,0.2,0.1,0.5,0.2,0.7l0.3,0.4c0.8,1.2,1.1,2.6,1,4L8.7,37c-0.2,2.2,1.5,4,3.6,4.1l3.2,0.1c2.3,0.1,4,2.1,3.6,4.4  c0,0.1,0,0.2,0,0.4c0,1.1,0.9,2.1,2.1,2.1h17.5c1.5,0,2.5-1.6,1.9-3l-1.3-2.6c-2.3-4.7-2.2-10.1,0.3-14.7L41.7,23.6z M37.8,18.8  c0,1.3-0.7,2.5-1.8,3.3c-1.8,1.3-3.2,3.1-3.9,5.2h-1.2l0.7-6.6c0.5-0.3,1-0.7,1.3-1c0.3,0.1,1.2,0.4,1.2,1c0,0.4,0.4,0.8,0.8,0.8  c0,0,0,0,0.1,0c0.5,0,0.8-0.5,0.8-0.9c-0.1-1.2-1.1-1.9-1.9-2.3c0.4-0.9,0.5-1.6,0.5-1.7c0,0,0-0.1,0-0.1c0-0.3-0.1-0.6-0.1-0.9  c0.7-0.2,1.5-0.7,2.2-1.7c0.3-0.4,0.2-0.9-0.2-1.2c-0.4-0.3-0.9-0.2-1.2,0.2c-0.5,0.7-1,0.9-1.3,1c-0.2-0.4-0.5-0.8-0.9-1.1  c-0.7-0.6-1.5-0.8-2.1-0.9c0.1-0.4,0.3-1,1.1-1.8c0.3-0.3,0.3-0.9,0-1.2c-0.3-0.3-0.9-0.3-1.2,0c-1,1-1.4,2-1.5,2.6  c-2.1-1-2-2.7-2-3c0.1-0.5-0.3-0.9-0.7-1c-0.5-0.1-0.9,0.3-1,0.7c0,0.3,0,0.6,0,1c-2,1.4-3.9-0.3-4.1-0.5c-0.3-0.3-0.9-0.3-1.2,0  c-0.3,0.3-0.3,0.9,0,1.2c0.3,0.3,0.8,0.6,1.3,0.9c-0.3,0.9-0.6,1.5-1,1.8c-0.6-1.2-2.1-1.8-2.3-1.8c-0.4-0.2-0.9,0-1.1,0.5  c-0.2,0.4,0,0.9,0.5,1.1c0.3,0.1,0.6,0.3,0.9,0.5c-0.1,0-0.1,0-0.1,0c-0.3-0.2-0.7-0.1-0.9,0.1l-2.1,1.7c-0.4,0.3-0.4,0.8-0.1,1.2  c0.2,0.2,0.4,0.3,0.7,0.3c0.2,0,0.4-0.1,0.5-0.2l1.7-1.4c0.6,0.2,1.5,0.3,2.5-0.1c1.1-0.5,2-1.6,2.5-3.2c0.2,0,0.5,0.1,0.7,0.1  c0.7,0,1.5-0.2,2.2-0.6c0.2,0.4,0.5,0.7,0.8,1c-0.3,0.5-0.5,1.1-0.7,1.7c-1.4-0.2-2.9,0.6-3.1,0.7c-0.4,0.2-0.5,0.8-0.3,1.2  c0.2,0.3,0.4,0.4,0.7,0.4c0.1,0,0.3,0,0.4-0.1c0.6-0.3,1.7-0.7,2.2-0.5c0.1,0.8,0.5,1.5,1.2,2.3c0.2,0.2,0.4,0.3,0.6,0.3  c0.2,0,0.4-0.1,0.6-0.2c0.3-0.3,0.4-0.9,0-1.2c-1.3-1.3-0.8-2.8-0.3-3.6c0.5,0.2,1,0.4,1.6,0.6c0.1,0,0.2,0,0.3,0  c0,0,0.9-0.1,1.6,0.5c0.5,0.5,0.9,1.2,0.9,2.3c-0.1,0.3-0.4,2.1-2.3,3C30.2,19.4,30,19.7,30,20l-0.8,7.1c0,0,0,0.1,0,0.1h-0.9  L28,24.7c-0.2-2.5-1.5-4.8-3.4-6.6c-0.1-0.1-0.2-0.2-0.3-0.3c-0.7,0.5-1.5,0.8-2.5,0.8c-0.8,0-1.6-0.3-2.3-0.7  c-0.9,0.6-2.1,0.9-3.4,0.5c-1.4-0.4-2.5-1.5-2.9-2.9c-0.6-2.2,0.7-4.2,2.5-4.9c0.4-1.8,2.1-3.2,4-3.2c0.1,0,0.1,0,0.2,0  c0.8-1,1.9-1.7,3.3-1.7c0.7,0,1.3,0.2,1.9,0.5c0.7-0.5,1.5-0.8,2.4-0.8c1.1,0,2.1,0.4,2.8,1.1c0.3-0.1,0.5-0.1,0.8-0.1  c1.6,0,3,0.9,3.7,2.3c1.7,0.5,2.9,2.1,2.9,3.9c0,0.4-0.1,0.7-0.2,1.1c0.6,0.7,0.9,1.6,0.9,2.6C38.6,17.3,38.3,18.1,37.8,18.8z"></path></svg>