<svg height='100px' width='100px'  fill="#000000" xmlns="http://www.w3.org/2000/svg" xmlns:xlink="http://www.w3.org/1999/xlink" version="1.1" x="0px" y="0px" viewBox="0 0 48 48" enable-background="new 0 0 48 48" xml:space="preserve"><g><path d="M48,0C35.3-0.5,24.1,4.7,16.8,13.2c-5.1-1.1-10-0.1-13.3,3.2c-1.8,1.8-2.9,4.1-3.4,6.7c3.1-1.2,6.9-1.1,10.6,0.1   c-0.7,1.7-1.3,3.5-1.8,5.3l10.7,10.7c1.8-0.5,3.6-1.1,5.3-1.8c1.2,3.7,1.3,7.4,0.1,10.6c2.5-0.5,4.9-1.6,6.7-3.4   c3.3-3.3,4.3-8.3,3.2-13.4C43.3,23.9,48.5,12.7,48,0z M31.4,16.6c-2-2-2-5.2,0-7.2c2-2,5.2-2,7.2,0c2,2,2,5.2,0,7.2   C36.6,18.6,33.4,18.6,31.4,16.6z"></path><path d="M4.2,39.1L8.3,35c0.4-0.4,0.4-1,0-1.4c-0.4-0.4-1-0.4-1.4,0l-4.1,4.1c-0.4,0.4-0.4,1,0,1.4C3,39.3,3.7,39.6,4.2,39.1z"></path><path d="M11.3,36.7c-0.4-0.4-1-0.4-1.4,0l-6.2,6.2c-0.4,0.4-0.4,1,0,1.4c0.2,0.2,0.9,0.5,1.4,0l6.2-6.2   C11.7,37.7,11.7,37,11.3,36.7z"></path><path d="M13,39.7l-4.1,4.1c-0.4,0.4-0.4,1,0,1.4c0.2,0.2,0.9,0.6,1.4,0l4.1-4.1c0.4-0.4,0.4-1,0-1.4C14,39.3,13.4,39.3,13,39.7z"></path></g></svg>