<svg height='100px' width='100px'  fill="#000000" xmlns="http://www.w3.org/2000/svg" xmlns:xlink="http://www.w3.org/1999/xlink" version="1.1" x="0px" y="0px" viewBox="0 0 48 48" enable-background="new 0 0 48 48" xml:space="preserve"><g><path d="M43,28.1H28.4v4c0,0.6-0.4,1-1,1h-6.9c-0.6,0-1-0.4-1-1v-4H5c-2,0-3.7-0.8-5-2.1v16c0,1.7,1.3,3,3,3h42c1.7,0,3-1.3,3-3V26   C46.7,27.3,45,28.1,43,28.1z"></path><path d="M5,26.1h14.6v-3c0-0.6,0.4-1,1-1h6.9c0.6,0,1,0.4,1,1v3H43c2.8,0,5-2.2,5-5V13c0-1.7-1.3-3-3-3h-9.5v-5c0-1.1-0.9-2-2-2   h-19c-1.1,0-2,0.9-2,2v5H3c-1.7,0-3,1.3-3,3v8.1C0,23.9,2.2,26.1,5,26.1z M16.5,6.9h15v3h-15V6.9z"></path><rect x="21.6" y="24.1" width="4.9" height="7"></rect></g></svg>