<svg height='100px' width='100px'  fill="#000000" xmlns="http://www.w3.org/2000/svg" xmlns:xlink="http://www.w3.org/1999/xlink" version="1.1" x="0px" y="0px" viewBox="0 0 48 48" enable-background="new 0 0 48 48" xml:space="preserve"><g><path d="M30.4,0c-9.7,0-17.6,7.9-17.6,17.6c0,3.4,1,6.6,2.7,9.3C6.2,34.7,2.7,37.4,1.6,38.5c-2.2,2.2-2.2,5.7,0,7.9   c2.2,2.2,5.7,2.2,7.9,0c1.1-1.1,3.7-4.6,11.6-13.9c2.7,1.7,5.9,2.7,9.3,2.7c9.7,0,17.6-7.9,17.6-17.6C48,7.9,40.1,0,30.4,0z    M30.4,30.2c-7,0-12.7-5.7-12.7-12.7c0-7,5.7-12.7,12.7-12.7c7,0,12.7,5.7,12.7,12.7C43.1,24.5,37.4,30.2,30.4,30.2z"></path><ellipse transform="matrix(-0.7071 -0.7071 0.7071 -0.7071 33.9749 38.997)" cx="25.1" cy="12.5" rx="2.5" ry="5"></ellipse></g></svg>