<svg height='100px' width='100px'  fill="#000000" xmlns="http://www.w3.org/2000/svg" xmlns:xlink="http://www.w3.org/1999/xlink" version="1.1" x="0px" y="0px" viewBox="0 0 48 48" enable-background="new 0 0 48 48" xml:space="preserve"><g><path d="M18,24.1c-0.4,0-0.8,0.3-0.8,0.6c-0.2,1.1,0.3,2,1.2,2.6c0-0.6,0-1.2,0-1.7l0.1-1.1c0-0.1,0-0.2-0.1-0.2   C18.4,24.1,18.2,24.1,18,24.1z"></path><path d="M30,24.1c-0.2,0-0.3,0.1-0.4,0.1c-0.1,0.1-0.1,0.1-0.1,0.2l0.1,1.1c0.1,0.6,0.1,1.2,0,1.7c0.9-0.6,1.3-1.5,1.2-2.6   C30.8,24.4,30.4,24.1,30,24.1z"></path><path d="M22.4,6.5c-6.4,0.7-11.6,5.7-12.5,12c-0.7,4.8,0.9,9.2,4,12.2c2.8,2.8,4.4,6.5,4.4,10.4v0.2h11.6v-0.2   c0-3.9,1.7-7.6,4.5-10.4c2.5-2.6,4.1-6.1,4.1-10C38.3,12.2,31,5.5,22.4,6.5z M29.6,29.2c-0.1,0-0.2,0.1-0.3,0.1   c-0.2,0.8-0.5,1.6-0.9,2.3c-1.1,2.1-1.9,4.8-2.3,8h-1.7c0.4-3.5,1.2-6.5,2.5-8.8c0.2-0.3,0.3-0.6,0.4-0.9c-2.2,0.5-4.5,0.5-6.7,0   c0.1,0.3,0.3,0.6,0.4,0.9c1.3,2.3,2.1,5.3,2.5,8.8h-1.7c-0.4-3.2-1.1-5.9-2.3-8c-0.4-0.7-0.7-1.5-0.9-2.3c-0.1,0-0.2-0.1-0.3-0.1   c-2.1-0.7-3.3-2.7-2.9-4.8c0.2-1.1,1.3-2,2.6-2c0.7,0,1.3,0.3,1.7,0.7c0.4,0.4,0.6,1,0.5,1.6l-0.1,1.1c-0.1,0.8-0.1,1.5,0,2.2   c2.5,0.7,5.2,0.7,7.7,0c0.1-0.7,0.1-1.5,0-2.2l-0.1-1.1c-0.1-0.6,0.1-1.1,0.5-1.6c0.4-0.5,1-0.7,1.7-0.7c1.2,0,2.4,0.9,2.6,2   C32.9,26.5,31.7,28.5,29.6,29.2z"></path><path d="M29.7,42.5H18.3c-0.6,0-1.1,0.5-1.1,1.1c0,0.6,0.5,1.1,1.1,1.1h11.3c0.6,0,1.1-0.5,1.1-1.1C30.7,43,30.3,42.5,29.7,42.5z"></path><path d="M29.7,45.9H18.3c-0.6,0-1.1,0.5-1.1,1.1c0,0.6,0.5,1.1,1.1,1.1h11.3c0.6,0,1.1-0.5,1.1-1.1C30.7,46.4,30.3,45.9,29.7,45.9z   "></path><rect x="23.1" y="0" width="1.7" height="4.5"></rect><rect x="8.7" y="6.3" transform="matrix(0.7382 0.6746 -0.6746 0.7382 7.7269 -5.5643)" width="4.7" height="1.7"></rect><rect x="3.2" y="18.2" width="5" height="1.7"></rect><rect x="39.9" y="18.2" width="5" height="1.7"></rect><rect x="36.1" y="4.8" transform="matrix(-0.6747 -0.7381 0.7381 -0.6747 56.6151 39.2982)" width="1.7" height="4.7"></rect></g></svg>