<svg height='100px' width='100px'  fill="#000000" xmlns="http://www.w3.org/2000/svg" xmlns:xlink="http://www.w3.org/1999/xlink" version="1.1" x="0px" y="0px" viewBox="0 0 48 48" enable-background="new 0 0 48 48" xml:space="preserve"><path d="M39.2,34.1V19.6c5-0.5,8.8-4.7,8.8-9.8C48,4.4,43.6,0,38.2,0c-5,0-9.1,3.8-9.8,8.6H13.9c-0.5-3.4-3.4-6-6.9-6  c-3.9,0-7,3.1-7,7c0,3.9,3.1,7,7,7c3.5,0,6.4-2.6,6.9-6h14.4c0.2,2,0.9,3.8,2.1,5.3L18.1,28.3c-2.7-2.1-6.6-1.8-9.1,0.7  c-2.7,2.7-2.7,7.2,0,9.9s7.2,2.7,9.9,0c2.5-2.5,2.7-6.4,0.7-9.1l12.3-12.3c1.5,1.2,3.3,2.1,5.3,2.3v14.5c-3.4,0.5-6,3.4-6,6.9  c0,3.9,3.1,7,7,7s7-3.1,7-7C45.2,37.5,42.6,34.6,39.2,34.1z"></path></svg>