<svg height='100px' width='100px'  fill="#000000" xmlns="http://www.w3.org/2000/svg" xmlns:xlink="http://www.w3.org/1999/xlink" version="1.1" x="0px" y="0px" viewBox="0 0 48 48" enable-background="new 0 0 48 48" xml:space="preserve"><g><path d="M33.1,40.9c0-0.7-0.6-1.3-1.3-1.3H16.1c-0.7,0-1.3,0.6-1.3,1.3c0,0.7,0.6,1.3,1.3,1.3c-0.7,0-1.3,0.6-1.3,1.3   c0,0.7,0.6,1.3,1.3,1.3h2.5v0.2c0,1.6,1.3,2.9,2.9,2.9h4.9c1.6,0,2.9-1.3,2.9-2.9v-0.2h2.5c0.7,0,1.3-0.6,1.3-1.3   c0-0.7-0.6-1.3-1.3-1.3C32.5,42.2,33.1,41.6,33.1,40.9z"></path><path d="M40.1,16.1C40.1,7,32.4-0.4,23.2,0C14.8,0.4,8.1,7.3,7.9,15.7c-0.1,4.3,1.5,8.4,4.5,11.5c2.1,2.2,3.5,4.7,4.1,7.5h-0.3   c-0.7,0-1.3,0.6-1.3,1.3c0,0.7,0.6,1.3,1.3,1.3h15.7c0.7,0,1.3-0.6,1.3-1.3c0-0.7-0.6-1.3-1.3-1.3h-0.2c0.6-2.7,2-5.3,4.1-7.5   C38.5,24.2,40.1,20.3,40.1,16.1z M22.9,23.9c0.7,0.1,1.5,0.1,2.3,0c-0.9,4.6-0.7,9.2-0.6,10.9h-1.1C23.6,33.1,23.8,28.5,22.9,23.9z    M27.4,34.7h-0.9c-0.1-1.5-0.3-6.5,0.7-11.2c0.8-0.2,1.6-0.5,2.4-0.8c1.8-0.8,2.7-2.9,1.9-4.8c-0.5-1.2-1.9-1.8-3.1-1.3   c-0.5,0.2-1,0.6-1.2,1.1c-0.7,1.3-1.2,2.7-1.6,4.1c-1.1,0.1-2.1,0.1-3.2,0c-0.4-1.4-0.9-2.8-1.6-4.1c-0.3-0.5-0.7-0.9-1.2-1.1   c-1.2-0.5-2.6,0.1-3.1,1.3c-0.8,1.9,0.1,4,1.9,4.8c0.8,0.3,1.6,0.6,2.4,0.8c1,4.8,0.8,9.7,0.7,11.2h-0.8c-0.7-3.8-2.5-7.4-5.3-10.3   c-2.2-2.3-3.4-5.4-3.3-8.6c0.1-6.3,5.2-11.4,11.4-11.7c0.2,0,0.4,0,0.6,0c6.6,0,12,5.4,12,12c0,3.1-1.2,6-3.3,8.3   C29.9,27.4,28.1,30.9,27.4,34.7z M27.9,21.3c0.3-0.9,0.7-1.8,1.1-2.6c0-0.1,0.1-0.1,0.2-0.2c0.1,0,0.1,0,0.2,0   c0.2,0,0.3,0.1,0.4,0.3c0.4,0.9,0,1.8-0.9,2.2C28.5,21,28.2,21.1,27.9,21.3z M20.1,21.3c-0.3-0.1-0.6-0.2-0.9-0.4   c-0.8-0.4-1.2-1.3-0.9-2.2c0.1-0.2,0.2-0.3,0.4-0.3c0.1,0,0.1,0,0.2,0c0.1,0,0.2,0.1,0.2,0.2C19.5,19.5,19.9,20.3,20.1,21.3z"></path></g></svg>