<svg height='100px' width='100px'  fill="#000000" xmlns="http://www.w3.org/2000/svg" xmlns:xlink="http://www.w3.org/1999/xlink" version="1.1" x="0px" y="0px" viewBox="0 0 48 48" enable-background="new 0 0 48 48" xml:space="preserve"><g><path d="M45,0H3C1.3,0,0,1.3,0,3v42c0,1.7,1.3,3,3,3h42c1.7,0,3-1.3,3-3V3C48,1.3,46.7,0,45,0z M44,24c0,11-9,20-20,20   C13,44,4,35,4,24l0,0C4,13,13,4,24,4C35,4,44,13,44,24L44,24z"></path><path d="M24,10.1c0.6,0,1-0.4,1-1V7.3c0-0.6-0.4-1-1-1c-0.6,0-1,0.4-1,1v1.8C23,9.7,23.4,10.1,24,10.1z"></path><path d="M24,39c-0.6,0-1,0.4-1,1v1.8c0,0.6,0.4,1,1,1c0.6,0,1-0.4,1-1V40C25,39.5,24.6,39,24,39z"></path><path d="M39.5,25.6h1.8c0.6,0,1-0.4,1-1c0-0.6-0.4-1-1-1h-1.8c-0.6,0-1,0.4-1,1C38.5,25.1,38.9,25.6,39.5,25.6z"></path><path d="M8.5,23.6H6.8c-0.6,0-1,0.4-1,1c0,0.6,0.4,1,1,1h1.8c0.6,0,1-0.4,1-1C9.5,24,9.1,23.6,8.5,23.6z"></path><path d="M35.5,11.7l-1.3,1.3c-0.4,0.4-0.4,1,0,1.4c0.4,0.4,1,0.4,1.4,0l1.3-1.3c0.4-0.4,0.4-1,0-1.4C36.5,11.3,35.9,11.3,35.5,11.7   z"></path><path d="M12.4,34.8l-1.3,1.3c-0.4,0.4-0.4,1,0,1.4c0.4,0.4,1,0.4,1.4,0l1.3-1.3c0.4-0.4,0.4-1,0-1.4C13.4,34.4,12.8,34.4,12.4,34.8   z"></path><path d="M35.6,34.8c-0.4-0.4-1-0.4-1.4,0c-0.4,0.4-0.4,1,0,1.4l1.3,1.3c0.4,0.4,1,0.4,1.4,0c0.4-0.4,0.4-1,0-1.4L35.6,34.8z"></path><path d="M12.5,11.7c-0.4-0.4-1-0.4-1.4,0c-0.4,0.4-0.4,1,0,1.4l1.3,1.3c0.4,0.4,1,0.4,1.4,0c0.4-0.4,0.4-1,0-1.4L12.5,11.7z"></path><path d="M34.9,24c0-0.6-0.4-1-1-1h-8.2c-0.2-0.3-0.4-0.5-0.7-0.7V14c0-0.6-0.4-1-1-1c-0.6,0-1,0.4-1,1v8.3c-0.6,0.3-1,1-1,1.7   c0,1.1,0.9,2,2,2c0.7,0,1.4-0.4,1.7-1h8.2C34.5,25,34.9,24.6,34.9,24z"></path></g></svg>